<?xml version="1.0" encoding="utf-8"?>
<!-- Generator: Adobe Illustrator 18.1.1, SVG Export Plug-In . SVG Version: 6.00 Build 0)  -->
<svg version="1.1" id="Layer_1" xmlns="http://www.w3.org/2000/svg" xmlns:xlink="http://www.w3.org/1999/xlink" x="0px" y="0px"
	 viewBox="0 0 360 63" enable-background="new 0 0 360 63" xml:space="preserve">
<g>
	<g>
		<polygon fill="#3B3837" points="128.4,19.8 128.4,41.6 130,41.6 130,31.8 142.3,31.8 142.3,30.3 130,30.3 130,21.3 143.7,21.3 
			143.7,19.8 		"/>
		<g>
			<path fill="#3B3837" d="M160.9,33.8L160.9,33.8c0-3.9-2.9-6.9-6.5-6.9c-3.8,0-6.5,3.1-6.5,6.8v0.1c0,3.8,2.9,6.9,6.5,6.9
				C158.2,40.6,160.9,37.5,160.9,33.8 M146.2,33.8L146.2,33.8c0-4.5,3.5-8.4,8.2-8.4c4.7,0,8.1,3.8,8.1,8.3v0.1
				c0,4.5-3.5,8.3-8.2,8.3C149.6,42,146.2,38.2,146.2,33.8"/>
			<path fill="#3B3837" d="M166.1,25.8h1.5v4.5c1.2-2.8,3.9-4.9,7-4.8v1.7h-0.2c-3.7,0-6.9,2.8-6.9,7.9v6.5h-1.5V25.8z"/>
		</g>
		<polygon fill="#3B3837" points="183.9,19.8 183.9,23.4 190.8,23.4 190.8,41.6 194.7,41.6 194.7,23.4 201.6,23.4 201.6,19.8 		"/>
		<g>
			<path fill="#3B3837" d="M204.1,18.9h3.8v8.8c1.1-1.5,2.6-2.9,5.1-2.9c3.7,0,5.9,2.5,5.9,6.3v10.5h-3.8v-9.3c0-2.6-1.3-4-3.5-4
				c-2.2,0-3.7,1.5-3.7,4.1v9.3h-3.8V18.9z"/>
			<path fill="#3B3837" d="M233.5,32.3c-0.2-2.4-1.7-4.3-4.2-4.3c-2.3,0-3.9,1.8-4.3,4.3H233.5z M221.3,33.5L221.3,33.5
				c0-4.8,3.3-8.6,8-8.6c5.2,0,7.9,4.1,7.9,8.8c0,0.3,0,0.7-0.1,1.1h-12.1c0.4,2.7,2.3,4.2,4.7,4.2c1.8,0,3.1-0.7,4.5-2l2.2,2
				c-1.6,1.9-3.7,3.1-6.7,3.1C225,42,221.3,38.6,221.3,33.5"/>
			<path fill="#3B3837" d="M257.9,30.7c2.7,0,4.5-1.4,4.5-3.6V27c0-2.3-1.7-3.6-4.5-3.6h-5.6v7.3H257.9z M248.5,19.8h9.7
				c2.7,0,4.9,0.8,6.3,2.2c1.2,1.2,1.8,2.8,1.8,4.7v0.1c0,3.6-2.1,5.7-5.2,6.6l5.9,8.3h-4.5l-5.4-7.6h-4.8v7.6h-3.8V19.8z"/>
			<path fill="#3B3837" d="M280.7,32.3c-0.3-2.4-1.7-4.3-4.2-4.3c-2.3,0-3.9,1.8-4.3,4.3H280.7z M268.5,33.5L268.5,33.5
				c0-4.8,3.3-8.6,8-8.6c5.2,0,7.9,4.1,7.9,8.8c0,0.3,0,0.7-0.1,1.1h-12.1c0.4,2.7,2.3,4.2,4.7,4.2c1.8,0,3.1-0.7,4.5-2l2.2,2
				c-1.6,1.9-3.7,3.1-6.7,3.1C272.2,42,268.5,38.6,268.5,33.5"/>
			<path fill="#3B3837" d="M286.2,33.5L286.2,33.5c0-4.7,3.6-8.7,8.6-8.7c3.1,0,5,1.2,6.6,2.8l-2.4,2.5c-1.2-1.2-2.4-2.1-4.2-2.1
				c-2.7,0-4.8,2.4-4.8,5.2v0.1c0,2.9,2,5.3,4.9,5.3c1.8,0,3.1-0.8,4.3-2l2.3,2.2c-1.6,1.8-3.5,3.1-6.7,3.1
				C289.8,42,286.2,38.2,286.2,33.5"/>
			<path fill="#3B3837" d="M316.6,33.5L316.6,33.5c0-3-2.1-5.4-5-5.4c-3,0-5,2.4-5,5.2v0.1c0,2.9,2.1,5.3,5,5.3
				C314.7,38.7,316.6,36.4,316.6,33.5 M302.8,33.5L302.8,33.5c0-4.8,3.7-8.7,8.8-8.7c5,0,8.7,3.8,8.7,8.5v0.1c0,4.7-3.7,8.6-8.8,8.6
				C306.5,42,302.8,38.2,302.8,33.5"/>
			<path fill="#3B3837" d="M323,25.2h3.8v3.7c1-2.5,2.9-4.1,5.8-4v4h-0.2c-3.3,0-5.6,2.1-5.6,6.5v6.3H323V25.2z"/>
			<path fill="#3B3837" d="M347.2,33.5L347.2,33.5c0-3.2-2.2-5.3-4.8-5.3c-2.6,0-4.7,2-4.7,5.3v0.1c0,3.2,2.2,5.3,4.7,5.3
				C345,38.7,347.2,36.6,347.2,33.5 M333.9,33.5L333.9,33.5c0-5.5,3.7-8.6,7.6-8.6c2.7,0,4.4,1.3,5.6,2.9v-8.8h3.8v22.7h-3.8v-2.7
				c-1.2,1.7-2.9,3.1-5.6,3.1C337.7,42,333.9,38.9,333.9,33.5"/>
		</g>
	</g>
	<g>
		<g>
			<path fill="#EF3E39" d="M8.5,37.4c0,0-1.3-0.1-1.3-0.9c0-0.8,1.3-1.1,1.3-1.1s5.2-0.4,8.3,0.5l0.9,0c0,0,2.7-2.3,4.6-5
				c1.9-2.8,4.4-2.9,4.4-2.9H28c0,0,1.3,0,1.6,2.4c0.3,2.3,0.8,8.2,0.8,8.2s1,1.3,4.2-11.8c3.3-13.1,7.3-23.9,14.6-26.6
				c0,0,2.9-0.8,2.8,0.8c-0.2,1.6-1.7,13.5-3.3,21.7c-1.6,8.2-3.5,23-3.3,24.4c0.3,1.5-0.1,0.2-0.1,0.2s0.5-0.2,0.7-1.1
				c0,0,8.1-27,15.6-31.9c0,0,1.6-0.6,2.9-0.1c1.3,0.5,0.9,0.7,0.8,2.2c-0.1,1.5-1.4,16.4-1.6,16.8h0.4c0,0,1.5-1.6,3.1-1.5
				c1.6,0.1,2.5,0.5,3.2,1.8c0.7,1.3,1.3,3.4,1.7,3.6l0.5-0.1c0,0,2.9-4.7,5.3-4.6c2.4,0.1,2.6,0.3,3,1.4c0.4,1.1,1.1,3.1,1.1,3.1
				l0.6,0.1c0,0,4.4-1.7,6.6-1.6c2.2,0.1,2.7,0.8,2.7,1.1c0,0.2,0.3,0.9-2.7,1.3c-3,0.4-7,2.8-7,2.8s-0.3,0.2-1.5,0.2
				c-1.2,0-2.4,0.2-2.9-0.8c-0.5-1-1-1.6-1-1.6S74.6,42,72.4,42c-2.2,0-2.5,0.6-5.5-4.6l-0.6-0.3l-3.4,5.6c0,0-0.3,0.8-2.6,0.8
				c-2.3,0-2.4-1.1-2.4-1.1s0.9-12.5,1.4-16.1l-0.4,0.1c0,0-3.2,6.7-6.1,15.8c-2.9,9.1-7.5,20.7-9.6,20.8c-2.1,0.1-3.8,0.7-3.8-2.2
				c0-3,0.5-14.9,1.2-20.3c0.8-5.5,4.7-29.8,4.7-29.8L45,10.7c0,0-3.2,7.9-5.6,17.6C37,38,32.7,47,29.5,47.2
				c-3.2,0.2-2.2-0.1-2.2-0.1s-1.1,0.2-1.4-2c-0.3-2.2-1.1-10-1.1-10l-0.7,0.3c0,0-2.1,2.7-4.7,2.6C16.7,37.9,11.5,37.3,8.5,37.4"/>
			<path fill="#EF3E39" d="M95.1,36.8c0,0-0.5,1.1,1.6,1.1h4.5c0,0,3,0.2,8.9,2.7c0,0,1.8,0.9,3,0.1c1.2-0.7,0.8-1.3,0-1.8
				c-0.8-0.4-5.6-2.8-10.9-3.1C96.9,35.5,95.4,35.8,95.1,36.8"/>
		</g>
	</g>
</g>
<g>
	<g>
		<polygon fill="#3B3837" points="128.4,19.8 128.4,41.6 130,41.6 130,31.8 142.3,31.8 142.3,30.3 130,30.3 130,21.3 143.7,21.3 
			143.7,19.8 		"/>
		<g>
			<path fill="#3B3837" d="M160.9,33.8L160.9,33.8c0-3.9-2.9-6.9-6.5-6.9c-3.8,0-6.5,3.1-6.5,6.8v0.1c0,3.8,2.9,6.9,6.5,6.9
				C158.2,40.6,160.9,37.5,160.9,33.8 M146.2,33.8L146.2,33.8c0-4.5,3.5-8.4,8.2-8.4c4.7,0,8.1,3.8,8.1,8.3v0.1
				c0,4.5-3.5,8.3-8.2,8.3C149.6,42,146.2,38.2,146.2,33.8"/>
			<path fill="#3B3837" d="M166.1,25.8h1.5v4.5c1.2-2.8,3.9-4.9,7-4.8v1.7h-0.2c-3.7,0-6.9,2.8-6.9,7.9v6.5h-1.5V25.8z"/>
		</g>
		<polygon fill="#3B3837" points="183.9,19.8 183.9,23.4 190.8,23.4 190.8,41.6 194.7,41.6 194.7,23.4 201.6,23.4 201.6,19.8 		"/>
		<g>
			<path fill="#3B3837" d="M204.1,18.9h3.8v8.8c1.1-1.5,2.6-2.9,5.1-2.9c3.7,0,5.9,2.5,5.9,6.3v10.5h-3.8v-9.3c0-2.6-1.3-4-3.5-4
				c-2.2,0-3.7,1.5-3.7,4.1v9.3h-3.8V18.9z"/>
			<path fill="#3B3837" d="M233.5,32.3c-0.2-2.4-1.7-4.3-4.2-4.3c-2.3,0-3.9,1.8-4.3,4.3H233.5z M221.3,33.5L221.3,33.5
				c0-4.8,3.3-8.6,8-8.6c5.2,0,7.9,4.1,7.9,8.8c0,0.3,0,0.7-0.1,1.1h-12.1c0.4,2.7,2.3,4.2,4.7,4.2c1.8,0,3.1-0.7,4.5-2l2.2,2
				c-1.6,1.9-3.7,3.1-6.7,3.1C225,42,221.3,38.6,221.3,33.5"/>
			<path fill="#3B3837" d="M257.9,30.7c2.7,0,4.5-1.4,4.5-3.6V27c0-2.3-1.7-3.6-4.5-3.6h-5.6v7.3H257.9z M248.5,19.8h9.7
				c2.7,0,4.9,0.8,6.3,2.2c1.2,1.2,1.8,2.8,1.8,4.7v0.1c0,3.6-2.1,5.7-5.2,6.6l5.9,8.3h-4.5l-5.4-7.6h-4.8v7.6h-3.8V19.8z"/>
			<path fill="#3B3837" d="M280.7,32.3c-0.3-2.4-1.7-4.3-4.2-4.3c-2.3,0-3.9,1.8-4.3,4.3H280.7z M268.5,33.5L268.5,33.5
				c0-4.8,3.3-8.6,8-8.6c5.2,0,7.9,4.1,7.9,8.8c0,0.3,0,0.7-0.1,1.1h-12.1c0.4,2.7,2.3,4.2,4.7,4.2c1.8,0,3.1-0.7,4.5-2l2.2,2
				c-1.6,1.9-3.7,3.1-6.7,3.1C272.2,42,268.5,38.6,268.5,33.5"/>
			<path fill="#3B3837" d="M286.2,33.5L286.2,33.5c0-4.7,3.6-8.7,8.6-8.7c3.1,0,5,1.2,6.6,2.8l-2.4,2.5c-1.2-1.2-2.4-2.1-4.2-2.1
				c-2.7,0-4.8,2.4-4.8,5.2v0.1c0,2.9,2,5.3,4.9,5.3c1.8,0,3.1-0.8,4.3-2l2.3,2.2c-1.6,1.8-3.5,3.1-6.7,3.1
				C289.8,42,286.2,38.2,286.2,33.5"/>
			<path fill="#3B3837" d="M316.6,33.5L316.6,33.5c0-3-2.1-5.4-5-5.4c-3,0-5,2.4-5,5.2v0.1c0,2.9,2.1,5.3,5,5.3
				C314.7,38.7,316.6,36.4,316.6,33.5 M302.8,33.5L302.8,33.5c0-4.8,3.7-8.7,8.8-8.7c5,0,8.7,3.8,8.7,8.5v0.1c0,4.7-3.7,8.6-8.8,8.6
				C306.5,42,302.8,38.2,302.8,33.5"/>
			<path fill="#3B3837" d="M323,25.2h3.8v3.7c1-2.5,2.9-4.1,5.8-4v4h-0.2c-3.3,0-5.6,2.1-5.6,6.5v6.3H323V25.2z"/>
			<path fill="#3B3837" d="M347.2,33.5L347.2,33.5c0-3.2-2.2-5.3-4.8-5.3c-2.6,0-4.7,2-4.7,5.3v0.1c0,3.2,2.2,5.3,4.7,5.3
				C345,38.7,347.2,36.6,347.2,33.5 M333.9,33.5L333.9,33.5c0-5.5,3.7-8.6,7.6-8.6c2.7,0,4.4,1.3,5.6,2.9v-8.8h3.8v22.7h-3.8v-2.7
				c-1.2,1.7-2.9,3.1-5.6,3.1C337.7,42,333.9,38.9,333.9,33.5"/>
		</g>
	</g>
	<g>
		<g>
			<path fill="#EF3E39" d="M8.5,37.4c0,0-1.3-0.1-1.3-0.9c0-0.8,1.3-1.1,1.3-1.1s5.2-0.4,8.3,0.5l0.9,0c0,0,2.7-2.3,4.6-5
				c1.9-2.8,4.4-2.9,4.4-2.9H28c0,0,1.3,0,1.6,2.4c0.3,2.3,0.8,8.2,0.8,8.2s1,1.3,4.2-11.8c3.3-13.1,7.3-23.9,14.6-26.6
				c0,0,2.9-0.8,2.8,0.8c-0.2,1.6-1.7,13.5-3.3,21.7c-1.6,8.2-3.5,23-3.3,24.4c0.3,1.5-0.1,0.2-0.1,0.2s0.5-0.2,0.7-1.1
				c0,0,8.1-27,15.6-31.9c0,0,1.6-0.6,2.9-0.1c1.3,0.5,0.9,0.7,0.8,2.2c-0.1,1.5-1.4,16.4-1.6,16.8h0.4c0,0,1.5-1.6,3.1-1.5
				c1.6,0.1,2.5,0.5,3.2,1.8c0.7,1.3,1.3,3.4,1.7,3.6l0.5-0.1c0,0,2.9-4.7,5.3-4.6c2.4,0.1,2.6,0.3,3,1.4c0.4,1.1,1.1,3.1,1.1,3.1
				l0.6,0.1c0,0,4.4-1.7,6.6-1.6c2.2,0.1,2.7,0.8,2.7,1.1c0,0.2,0.3,0.9-2.7,1.3c-3,0.4-7,2.8-7,2.8s-0.3,0.2-1.5,0.2
				c-1.2,0-2.4,0.2-2.9-0.8c-0.5-1-1-1.6-1-1.6S74.6,42,72.4,42c-2.2,0-2.5,0.6-5.5-4.6l-0.6-0.3l-3.4,5.6c0,0-0.3,0.8-2.6,0.8
				c-2.3,0-2.4-1.1-2.4-1.1s0.9-12.5,1.4-16.1l-0.4,0.1c0,0-3.2,6.7-6.1,15.8c-2.9,9.1-7.5,20.7-9.6,20.8c-2.1,0.1-3.8,0.7-3.8-2.2
				c0-3,0.5-14.9,1.2-20.3c0.8-5.5,4.7-29.8,4.7-29.8L45,10.7c0,0-3.2,7.9-5.6,17.6C37,38,32.7,47,29.5,47.2
				c-3.2,0.2-2.2-0.1-2.2-0.1s-1.1,0.2-1.4-2c-0.3-2.2-1.1-10-1.1-10l-0.7,0.3c0,0-2.1,2.7-4.7,2.6C16.7,37.9,11.5,37.3,8.5,37.4"/>
			<path fill="#EF3E39" d="M95.1,36.8c0,0-0.5,1.1,1.6,1.1h4.5c0,0,3,0.2,8.9,2.7c0,0,1.8,0.9,3,0.1c1.2-0.7,0.8-1.3,0-1.8
				c-0.8-0.4-5.6-2.8-10.9-3.1C96.9,35.5,95.4,35.8,95.1,36.8"/>
		</g>
	</g>
</g>
</svg>
